<?xml version="1.0" encoding="utf-8"?>
<!-- Generator: Adobe Illustrator 24.0.3, SVG Export Plug-In . SVG Version: 6.00 Build 0)  -->
<svg version="1.1" id="Layer_1" xmlns="http://www.w3.org/2000/svg" xmlns:xlink="http://www.w3.org/1999/xlink" x="0px" y="0px"
	 viewBox="0 0 234 234" style="enable-background:new 0 0 234 234;" xml:space="preserve">
<style type="text/css">
	.st0{fill:#003E69;}
	.st1{fill:url(#SVGID_1_);}
	.st2{fill:url(#SVGID_2_);}
	.st3{clip-path:url(#SVGID_4_);}
	.st4{fill:url(#SVGID_5_);}
	.st5{fill:url(#SVGID_6_);}
	.st6{fill:url(#SVGID_7_);}
	.st7{fill:url(#SVGID_8_);}
	.st8{fill:url(#SVGID_9_);}
	.st9{fill:url(#SVGID_10_);}
	.st10{fill:url(#SVGID_11_);}
	.st11{fill:url(#SVGID_12_);}
	.st12{fill:url(#SVGID_13_);}
	.st13{fill:#FFFFFF;}
</style>
<path class="st0" d="M232.94,101.35c8.64,64.03-36.26,122.94-100.29,131.58C68.62,241.58,9.71,196.68,1.07,132.65
	C-7.58,68.62,37.32,9.71,101.35,1.07C165.38-7.58,224.29,37.32,232.94,101.35z"/>
<radialGradient id="SVGID_1_" cx="132.1785" cy="49.4963" r="41.335" gradientUnits="userSpaceOnUse">
	<stop  offset="0" style="stop-color:#486A8D"/>
	<stop  offset="1" style="stop-color:#003E69"/>
</radialGradient>
<circle class="st1" cx="132.18" cy="49.5" r="41.33"/>
<linearGradient id="SVGID_2_" gradientUnits="userSpaceOnUse" x1="113.8539" y1="120.6215" x2="113.8539" y2="232.9852" gradientTransform="matrix(1.0045 0.0819 -0.0822 1.0072 12.1716 -11.1669)">
	<stop  offset="0" style="stop-color:#003E69"/>
	<stop  offset="0.23" style="stop-color:#003B63"/>
	<stop  offset="0.6192" style="stop-color:#003055"/>
	<stop  offset="1" style="stop-color:#002143"/>
</linearGradient>
<path class="st2" d="M232.4,129.09c-5.23,62.35-61.32,108.78-125.27,103.71C43.18,227.73-4.43,173.07,0.8,110.72"/>
<g>
	<defs>
		<path id="SVGID_3_" d="M233.28,120.11c-1.74,64.18-55.18,114.81-119.36,113.07C49.73,231.44-0.89,178,0.85,113.82
			C2.58,49.63,56.02-0.99,120.21,0.75C184.39,2.48,235.02,55.92,233.28,120.11z"/>
	</defs>
	<clipPath id="SVGID_4_">
		<use xlink:href="#SVGID_3_"  style="overflow:visible;"/>
	</clipPath>
	<g class="st3">
		<g>
			
				<linearGradient id="SVGID_5_" gradientUnits="userSpaceOnUse" x1="102.5236" y1="-4.7664" x2="188.9339" y2="285.8451" gradientTransform="matrix(0.9585 0.285 -0.285 0.9585 34.9371 -27.5451)">
				<stop  offset="0" style="stop-color:#FFFFFF"/>
				<stop  offset="0.219" style="stop-color:#7F92AB"/>
				<stop  offset="0.3073" style="stop-color:#5A7696"/>
				<stop  offset="0.4886" style="stop-color:#014C74"/>
				<stop  offset="0.5712" style="stop-color:#003E69"/>
				<stop  offset="0.7658" style="stop-color:#002143"/>
			</linearGradient>
			<path class="st4" d="M141.83,79.14C141.83,79.14,141.83,79.14,141.83,79.14c-5.09,0-10.27-0.77-15.38-2.29
				c-21.11-6.28-34.65-23.62-30.17-38.66C99.56,27.14,111.74,20,127.3,20c5.09,0,10.26,0.77,15.38,2.29
				c21.11,6.28,34.65,23.62,30.18,38.66C169.56,72,157.39,79.14,141.83,79.14z M127.3,21.53c-14.86,0-26.46,6.71-29.55,17.09
				c-4.23,14.23,8.84,30.72,29.14,36.76c4.97,1.48,10,2.23,14.94,2.23c14.86,0,26.46-6.71,29.55-17.09
				c4.23-14.23-8.84-30.72-29.14-36.76C137.26,22.28,132.24,21.53,127.3,21.53z"/>
			
				<linearGradient id="SVGID_6_" gradientUnits="userSpaceOnUse" x1="88.9224" y1="-0.7236" x2="175.3334" y2="289.8902" gradientTransform="matrix(0.9585 0.285 -0.285 0.9585 34.9371 -27.5451)">
				<stop  offset="0" style="stop-color:#FFFFFF"/>
				<stop  offset="0.219" style="stop-color:#7F92AB"/>
				<stop  offset="0.3073" style="stop-color:#5A7696"/>
				<stop  offset="0.4886" style="stop-color:#014C74"/>
				<stop  offset="0.5712" style="stop-color:#003E69"/>
				<stop  offset="0.7658" style="stop-color:#002143"/>
			</linearGradient>
			<path class="st5" d="M144.79,194.52c-16.66,0-33.95-2.54-51.06-7.63c-33.75-10.04-62.72-28.77-81.58-52.75
				C-6.77,110.07-13.26,83.61-6.13,59.61c4.51-15.16,14.39-28.52,28.59-38.64l0.89,1.25c-13.91,9.92-23.6,23-28.01,37.83
				c-6.99,23.51-0.59,49.48,18.01,73.14c18.67,23.74,47.37,42.29,80.82,52.23c33.44,9.95,67.62,10.09,96.22,0.41
				c28.51-9.65,48.06-27.91,55.05-51.41c4.6-15.48,3.35-32.43-3.6-49l1.41-0.59c7.1,16.91,8.36,34.21,3.66,50.03
				c-7.13,24-27.03,42.62-56.03,52.43C176.63,192.1,161.01,194.51,144.79,194.52z M146.46,155.62c-13.37,0-27.45-1.99-41.59-6.19
				C47.8,132.46,11.16,85.73,23.19,45.27C35.22,4.81,91.44-14.3,148.51,2.66c27.6,8.21,51.3,23.53,66.72,43.15
				c7.52,9.56,12.67,19.63,15.3,29.92c2.73,10.69,2.62,21.14-0.34,31.09C221.14,137.26,187.08,155.62,146.46,155.62z M106.87-2
				C66.94-2,33.52,15.93,24.66,45.71c-11.79,39.65,24.39,85.52,80.65,102.25c14.01,4.16,27.97,6.14,41.2,6.14
				c39.93,0,73.35-17.93,82.21-47.71c5.7-19.16,0.48-40.33-14.69-59.63c-15.23-19.37-38.66-34.51-65.96-42.62
				C134.07-0.03,120.11-2,106.87-2z M145.49,116.32c-9.48,0-19.45-1.41-29.47-4.39C75.57,99.91,49.6,66.78,58.13,38.1
				c4.15-13.95,15.7-24.76,32.54-30.45c16.75-5.66,36.74-5.57,56.28,0.24c40.45,12.03,66.42,45.15,57.89,73.84
				C198.43,103.3,174.28,116.32,145.49,116.32z M116.46,110.46c39.64,11.79,78.63-1.3,86.92-29.18
				c8.29-27.88-17.22-60.14-56.86-71.93c-19.25-5.72-38.9-5.81-55.36-0.26C74.81,14.63,63.6,25.08,59.6,38.53
				C51.31,66.41,76.82,98.68,116.46,110.46z"/>
			
				<linearGradient id="SVGID_7_" gradientUnits="userSpaceOnUse" x1="85.7346" y1="0.2237" x2="172.146" y2="290.8387" gradientTransform="matrix(0.9585 0.285 -0.285 0.9585 34.9371 -27.5451)">
				<stop  offset="0" style="stop-color:#FFFFFF"/>
				<stop  offset="0.219" style="stop-color:#7F92AB"/>
				<stop  offset="0.3073" style="stop-color:#5A7696"/>
				<stop  offset="0.4886" style="stop-color:#014C74"/>
				<stop  offset="0.5712" style="stop-color:#003E69"/>
				<stop  offset="0.7658" style="stop-color:#002143"/>
			</linearGradient>
			<path class="st6" d="M143.19,211.58c-17.48,0-35.9-2.6-54.39-8.1C14.52,181.39-33.25,120.81-17.67,68.44
				c2.98-10.03,8.12-19.25,15.28-27.4l1.15,1.01c-7.01,7.98-12.04,17.01-14.96,26.83c-15.33,51.56,31.97,111.28,105.44,133.13
				c18.37,5.46,36.66,8.05,54.01,8.05c52.04,0,95.55-23.26,107.04-61.93c2.92-9.81,3.63-20.12,2.12-30.65l1.52-0.22
				c1.54,10.74,0.81,21.27-2.17,31.3C240.07,187.89,195.92,211.58,143.19,211.58z"/>
			
				<linearGradient id="SVGID_8_" gradientUnits="userSpaceOnUse" x1="72.5724" y1="4.1378" x2="158.9839" y2="294.7531" gradientTransform="matrix(0.9585 0.285 -0.285 0.9585 34.9371 -27.5451)">
				<stop  offset="0" style="stop-color:#FFFFFF"/>
				<stop  offset="0.219" style="stop-color:#7F92AB"/>
				<stop  offset="0.3073" style="stop-color:#5A7696"/>
				<stop  offset="0.4886" style="stop-color:#014C74"/>
				<stop  offset="0.5712" style="stop-color:#003E69"/>
				<stop  offset="0.7658" style="stop-color:#002143"/>
			</linearGradient>
			<path class="st7" d="M133.45,260.9c-19.28,0-39.29-2.95-59.09-8.83c-80.39-23.9-132.09-89.45-115.24-146.12l1.47,0.44
				C-56.02,162.24-4.79,226.94,74.79,250.6c38.6,11.48,78.02,11.7,111,0.62c32.89-11.04,55.42-32,63.45-59.01l1.47,0.44
				c-8.18,27.5-31.06,48.82-64.43,60.02C169.94,258.16,152.04,260.9,133.45,260.9z"/>
			
				<linearGradient id="SVGID_9_" gradientUnits="userSpaceOnUse" x1="74.6419" y1="3.5224" x2="161.0533" y2="294.1375" gradientTransform="matrix(0.9585 0.285 -0.285 0.9585 34.9371 -27.5451)">
				<stop  offset="0" style="stop-color:#FFFFFF"/>
				<stop  offset="0.219" style="stop-color:#7F92AB"/>
				<stop  offset="0.3073" style="stop-color:#5A7696"/>
				<stop  offset="0.4886" style="stop-color:#014C74"/>
				<stop  offset="0.5712" style="stop-color:#003E69"/>
				<stop  offset="0.7658" style="stop-color:#002143"/>
			</linearGradient>
			<path class="st8" d="M124.64,283.9c-18.51,0-37.92-2.78-57.22-8.52C6.37,257.23-39.35,213.71-46.36,167.08l1.52-0.23
				c6.92,46.05,52.21,89.08,112.7,107.07c60.49,17.98,121.93,6.69,152.89-28.1l1.14,1.02C200.46,270.92,164.66,283.9,124.64,283.9z
				 M140.37,230.37c-18.33,0-37.65-2.73-57.04-8.5C5.44,198.71-44.65,135.19-28.33,80.28c3.13-10.51,8.52-20.18,16.02-28.73
				l1.15,1.01c-7.35,8.38-12.64,17.85-15.7,28.15C-42.94,134.82,6.68,197.48,83.77,220.4c19.27,5.73,38.47,8.44,56.66,8.44
				c54.6,0,100.25-24.41,112.31-64.98c3.06-10.3,3.81-21.12,2.23-32.16l1.52-0.22c1.61,11.26,0.84,22.3-2.28,32.81
				C241.95,205.53,195.66,230.36,140.37,230.37z"/>
			
				<linearGradient id="SVGID_10_" gradientUnits="userSpaceOnUse" x1="49.9496" y1="10.8645" x2="136.3605" y2="301.4783" gradientTransform="matrix(0.9585 0.285 -0.285 0.9585 34.9371 -27.5451)">
				<stop  offset="0" style="stop-color:#FFFFFF"/>
				<stop  offset="0.219" style="stop-color:#7F92AB"/>
				<stop  offset="0.3073" style="stop-color:#5A7696"/>
				<stop  offset="0.4886" style="stop-color:#014C74"/>
				<stop  offset="0.5712" style="stop-color:#003E69"/>
				<stop  offset="0.7658" style="stop-color:#002143"/>
			</linearGradient>
			<path class="st9" d="M118.87,292.61c-17.61,0-36.01-2.65-54.18-8.05c-47.31-14.07-86.22-45.09-101.53-80.96l1.41-0.6
				c15.14,35.46,53.67,66.15,100.56,80.09c48.29,14.36,98.2,9.11,130.25-13.7l0.89,1.25C175.93,285.11,148.51,292.61,118.87,292.61z
				"/>
			
				<linearGradient id="SVGID_11_" gradientUnits="userSpaceOnUse" x1="43.8846" y1="12.7286" x2="130.2958" y2="303.343" gradientTransform="matrix(0.9585 0.285 -0.285 0.9585 34.9371 -27.5451)">
				<stop  offset="0" style="stop-color:#FFFFFF"/>
				<stop  offset="0.219" style="stop-color:#7F92AB"/>
				<stop  offset="0.3073" style="stop-color:#5A7696"/>
				<stop  offset="0.4886" style="stop-color:#014C74"/>
				<stop  offset="0.5712" style="stop-color:#003E69"/>
				<stop  offset="0.7658" style="stop-color:#002143"/>
			</linearGradient>
			<path class="st10" d="M114.33,297.26c-16.43,0-33.53-2.46-50.42-7.41l-1.25,4.22l-1.47-0.44l1.25-4.22
				c-37.01-11.17-68.45-33.07-86.34-60.16l1.28-0.84c17.7,26.8,48.83,48.47,85.5,59.54l63.03-212l1.47,0.44l-63.03,212
				c37.5,10.99,75.98,9.61,105.68-3.81l0.63,1.4C154.03,293.48,134.7,297.26,114.33,297.26z M-12.68,54.67l-1.28-0.85
				C-1,34.31,44.31,13.65,100.42,31.27l-0.46,1.46c-31.32-9.84-56.7-6.82-72.46-2.55C9.51,35.05-5.88,44.43-12.68,54.67z
				 M105.57,27.38C64.03,5.51,36.28,14.74,23.44,22.19l-0.77-1.33c13.12-7.61,41.42-17.05,83.61,5.16L105.57,27.38z M112.46,23.67
				C94.34,5.8,71.21,1.09,57.74,5.67l-0.49-1.45c13.92-4.73,37.73,0.06,56.3,18.36L112.46,23.67z M143.18,23.24l-1.47-0.44
				l5.79-19.49l1.47,0.44L143.18,23.24z M121.83,21.42C113.96,8.18,101.67-0.95,91.26-1.31l0.05-1.53
				c11.08,0.38,23.58,9.59,31.83,23.47L121.83,21.42z M131.55,21.24c-2.13-11.56-4.69-19.79-10.24-22.41l0.65-1.39
				c6.14,2.9,8.87,11.5,11.09,23.52L131.55,21.24z"/>
			
				<linearGradient id="SVGID_12_" gradientUnits="userSpaceOnUse" x1="74.2446" y1="3.6413" x2="160.6556" y2="294.255" gradientTransform="matrix(0.9585 0.285 -0.285 0.9585 34.9371 -27.5451)">
				<stop  offset="0" style="stop-color:#FFFFFF"/>
				<stop  offset="0.219" style="stop-color:#7F92AB"/>
				<stop  offset="0.3073" style="stop-color:#5A7696"/>
				<stop  offset="0.4886" style="stop-color:#014C74"/>
				<stop  offset="0.5712" style="stop-color:#003E69"/>
				<stop  offset="0.7658" style="stop-color:#002143"/>
			</linearGradient>
			<path class="st11" d="M105.16,301.05c0,0-0.01,0-0.01,0c-14.66,0-29.29-2.14-43.47-6.36c-39-11.59-71.14-37.68-90.52-73.46
				s-23.66-76.96-12.07-115.95C-31.37,73.19-12.1,45.77,14.81,26C40.85,6.87,72.89-3.66,105.03-3.66c14.66,0,29.29,2.14,43.47,6.36
				c80.5,23.94,126.52,108.91,102.59,189.41c-9.54,32.1-28.81,59.51-55.72,79.28C169.33,290.52,137.3,301.05,105.16,301.05z
				 M105.03-2.13C73.22-2.13,41.5,8.3,15.72,27.24c-26.64,19.57-45.71,46.71-55.16,78.48c-11.48,38.61-7.24,79.37,11.95,114.79
				c19.18,35.42,51.01,61.24,89.61,72.72c14.04,4.17,28.52,6.29,43.04,6.29c0,0,0.01,0,0.01,0c31.81,0,63.52-10.43,89.3-29.37
				c26.64-19.57,45.71-46.71,55.16-78.48c23.7-79.69-21.86-163.81-101.55-187.51C134.02-0.01,119.54-2.13,105.03-2.13z"/>
			
				<linearGradient id="SVGID_13_" gradientUnits="userSpaceOnUse" x1="74.0703" y1="3.6934" x2="160.4812" y2="294.3071" gradientTransform="matrix(0.9585 0.285 -0.285 0.9585 34.9371 -27.5451)">
				<stop  offset="0" style="stop-color:#FFFFFF"/>
				<stop  offset="0.219" style="stop-color:#7F92AB"/>
				<stop  offset="0.3073" style="stop-color:#5A7696"/>
				<stop  offset="0.4886" style="stop-color:#014C74"/>
				<stop  offset="0.5712" style="stop-color:#003E69"/>
				<stop  offset="0.7658" style="stop-color:#002143"/>
			</linearGradient>
			<path class="st12" d="M90.43,300.2l-0.21-1.52c11.42-1.6,23.58-33.92,33.36-88.67c8.24-46.13,13.3-100.39,12.3-131.95l1.53-0.05
				c1,31.65-4.06,86.05-12.32,132.27C119.26,242.87,107.02,297.88,90.43,300.2z M122.7,299.82l-0.36-1.49
				c6.89-1.67,13.18-7.23,18.69-16.52c19.76-33.29,28.11-115.93,4.68-203.5l1.48-0.4c23.54,87.98,15.08,171.12-4.84,204.68
				C136.62,292.25,130.01,298.05,122.7,299.82z M158.08,291.22l-0.65-1.39c12.09-5.62,21.47-17.81,27.1-35.24
				c7.06-21.83,8.17-51.31,3.12-83.01c-5.29-33.17-16.63-65.98-32.81-94.87l1.34-0.75c16.26,29.05,27.67,62.03,32.98,95.38
				c5.09,31.93,3.96,61.67-3.17,83.72C180.22,272.91,170.57,285.42,158.08,291.22z M34.62,283.61
				c-12.62-11.01,7.18-63.77,20.1-94.24c18.34-43.23,43.81-91.55,61.95-117.51l1.26,0.88c-18.08,25.89-43.49,74.1-61.79,117.23
				c-21.72,51.2-29.2,84.91-20.51,92.49L34.62,283.61z M197.73,269.47l-1.05-1.12c18.07-16.99,25.59-47.12,20.63-82.64
				c-5.37-38.49-24.8-78.48-54.7-112.61l1.15-1.01c30.1,34.35,49.65,74.62,55.07,113.41C223.86,221.52,216.16,252.13,197.73,269.47z
				 M7.8,265.65c-5.15-5.48-7.52-13.94-7.05-25.16C2.4,201.5,40.74,127.25,108.52,66.42l1.02,1.14
				C42.07,128.11,3.92,201.88,2.28,240.56c-0.46,10.79,1.77,18.88,6.63,24.05L7.8,265.65z M-17.13,239.12
				c-7.29-11.68-8.54-27.43-3.62-45.54c6.08-22.37,21.38-47.89,43.09-71.85C45,96.7,72.57,75.31,102.07,59.86l0.71,1.36
				c-29.34,15.36-56.76,36.64-79.31,61.53c-21.55,23.79-36.73,49.09-42.75,71.23c-4.8,17.69-3.61,33.01,3.45,44.33L-17.13,239.12z
				 M228.81,237.23l-1.26-0.87c13.72-19.76,16.21-48.48,6.84-78.8c-10.24-33.12-33.76-65.03-66.21-89.83l0.93-1.22
				c32.7,25,56.41,57.17,66.74,90.6C245.37,187.87,242.8,217.08,228.81,237.23z M-38.46,199.24c-5.97-24.6,4.31-54.43,28.21-81.86
				c25.72-29.52,64.11-52.57,108.08-64.9l0.41,1.48C54.56,66.21,16.43,89.09-9.1,118.39c-23.56,27.04-33.72,56.38-27.87,80.49
				L-38.46,199.24z M252.2,187.55l-1.49-0.38c12.56-49.28-30.27-102.54-78.92-125.55l0.66-1.39
				C221.67,83.52,264.96,137.51,252.2,187.55z M-46.88,155.26c-0.71-24.52,13.1-50.38,37.88-70.96
				c26.92-22.35,64.35-36.35,105.4-39.41l0.11,1.53C55.79,49.46,18.66,63.33-8.01,85.48c-24.42,20.27-38.03,45.69-37.33,69.74
				L-46.88,155.26z M255.13,134.29c-0.1-12.29-7.87-28.56-20.28-42.46c-10.88-12.19-30.47-28.58-62.08-37.46l0.41-1.48
				c56.62,15.9,83.29,57.96,83.48,81.38L255.13,134.29z M-37.88,101.36l-1.45-0.5c16.66-48.88,82.42-70.45,136.36-63.06l-0.21,1.52
				C43.51,32.03-21.47,53.23-37.88,101.36z M242.62,87.36C235.93,74.1,217.74,51.21,171,46.84l0.14-1.53
				c47.48,4.44,66.02,27.82,72.85,41.36L242.62,87.36z M222.92,54.79c-8.78-11.2-30.73-19.89-55.67-14.83l-0.3-1.5
				c25.56-5.18,48.11,3.82,57.18,15.38L222.92,54.79z M160.64,32.96l-0.68-1.38c14.5-7.12,29.99-8.01,39.48-2.27l-0.79,1.31
				C189.74,25.23,174.46,26.17,160.64,32.96z M152.59,27.5l-1.11-1.06c8.43-8.85,15.42-14.56,22.14-13.63l-0.21,1.52
				C167.35,13.49,160.7,18.99,152.59,27.5z"/>
		</g>
	</g>
</g>
<g>
	<path class="st13" d="M19.95,106.75l0.19,22.32c0.05,5.36,0.25,9.19,0.6,11.5c0.35,2.31,0.93,4.06,1.73,5.25h-8.09
		c0.9-1.15,1.57-3.81,1.98-7.99c0.42-4.18,0.62-10.27,0.62-18.28c0-7.09-0.19-11.7-0.57-13.83c-0.38-2.13-1.06-3.54-2.04-4.24h7.26
		c1.29,0,2.73,1.22,4.34,3.65c0.4,0.63,0.72,1.13,0.97,1.49c1.31,1.91,3.33,4.94,6.05,9.08c6.28,9.61,11.34,17.03,15.18,22.25
		l0.07-19.38c0-6.21-0.14-10.42-0.4-12.61c-0.27-2.2-0.73-3.69-1.38-4.48h6.58c-0.67,0.63-1.13,2.31-1.39,5.05
		c-0.26,2.74-0.39,8.27-0.39,16.6v8.85v14.05h-4.51c-1.54-2.43-5.36-8.06-11.47-16.88C29.17,120.32,24.06,112.85,19.95,106.75z"/>
</g>
<g>
	<path class="st13" d="M67.83,144.08v-7.6c1.39,2.3,3.14,4.06,5.26,5.27c2.12,1.22,4.53,1.83,7.24,1.83c2.68,0,4.85-0.79,6.53-2.37
		c1.67-1.58,2.51-3.6,2.51-6.07c0-1.92-0.57-3.61-1.69-5.08c-1.13-1.47-3.04-2.92-5.72-4.37c-0.2-0.11-0.5-0.28-0.89-0.51
		c-7.81-4.26-11.71-8.59-11.71-12.99c0-3.41,1.33-6.18,4-8.34c2.67-2.15,6.13-3.23,10.4-3.23c1.39,0,2.9,0.04,4.54,0.13
		c1.63,0.09,2.58,0.13,2.83,0.13c0.1,0,0.29,0.01,0.58,0.03c0.29,0.02,0.53,0.03,0.73,0.03h1.75v7.26c-0.87-1.5-2.09-2.64-3.67-3.43
		c-1.58-0.79-3.41-1.18-5.49-1.18c-2.88,0-5.16,0.63-6.84,1.9c-1.67,1.27-2.51,2.98-2.51,5.13c0,3.2,3.05,6.41,9.16,9.65
		c0.22,0.09,0.37,0.16,0.45,0.2c3.84,2.03,6.58,4.04,8.22,6.02c1.64,1.99,2.46,4.23,2.46,6.73c0,3.72-1.53,6.89-4.57,9.52
		c-3.05,2.63-6.81,3.94-11.27,3.94c-1.79,0-3.68-0.21-5.69-0.64C72.4,145.63,70.21,144.98,67.83,144.08z"/>
</g>
<g>
	<path class="st13" d="M111.88,145.82c0.6-0.67,1.02-2.23,1.27-4.66c0.25-2.43,0.38-7.63,0.38-15.6v-2.84
		c0-8.69-0.13-14.23-0.38-16.63c-0.25-2.4-0.67-3.93-1.27-4.61h9.19c-0.59,0.65-1.02,2.15-1.27,4.49
		c-0.25,2.34-0.38,7.33-0.38,14.96v2.7v2.67c0,7.66,0.12,12.66,0.38,15.01c0.25,2.35,0.68,3.86,1.27,4.51H111.88z"/>
</g>
<g>
	<path class="st13" d="M148.37,103.79c1.13-0.13,2.3-0.19,3.54-0.19c5.96,0,10.56,1.76,13.81,5.27c3.24,3.51,4.86,8.51,4.86,14.99
		c0,6.19-1.54,10.98-4.62,14.38c-3.08,3.4-7.44,5.1-13.08,5.1c-3.02,0-5.07-0.2-6.14-0.59c-1.08-0.39-1.7-1.17-1.87-2.32
		c-0.1-0.79-0.18-2.19-0.24-4.21c-0.06-2.02-0.09-4.51-0.09-7.49v-10.11c0-3.92,0.04-7.02,0.13-9.28c0.09-2.27,0.23-3.93,0.43-4.99
		C146.15,104.1,147.24,103.91,148.37,103.79z M141.58,145.82c0.99,0,2.81,0.06,5.46,0.19c2.65,0.12,4.8,0.19,6.43,0.19
		c7.46,0,13.36-2.21,17.71-6.61c4.35-4.41,6.52-10.41,6.52-17.99c0-6.52-1.82-11.65-5.45-15.38c-3.63-3.73-8.62-5.6-14.96-5.6
		c-1.44,0-3.85,0.15-7.25,0.44c-3.39,0.29-6.11,0.44-8.14,0.44h-4.92c0.59,0.68,1.02,2.22,1.27,4.62c0.25,2.4,0.38,7.96,0.38,16.67
		v2.84c0,7.95-0.12,13.14-0.38,15.56c-0.25,2.42-0.67,3.97-1.27,4.65H141.58z"/>
</g>
<g>
	<path class="st13" d="M223.42,101.41l-0.41,9.54c-1-2.44-2.38-4.27-4.17-5.5c-1.79-1.23-3.96-1.85-6.51-1.85
		c-4.96,0-8.85,1.64-11.68,4.92c-2.83,3.28-4.24,7.8-4.24,13.57c0,5.95,1.55,10.68,4.65,14.21c3.1,3.53,7.24,5.29,12.42,5.29
		c2.45,0,4.74-0.47,6.87-1.42c2.13-0.95,3.98-2.3,5.54-4.06c-0.82,3.22-2.64,5.78-5.47,7.71c-2.83,1.92-6.22,2.88-10.19,2.88
		c-6.05,0-11.01-2.11-14.88-6.33c-3.87-4.22-5.8-9.64-5.8-16.27c0-7.33,2.08-13.08,6.25-17.24c4.17-4.16,9.93-6.24,17.27-6.24
		c1.17,0,2.89,0.13,5.17,0.4C220.53,101.28,222.26,101.41,223.42,101.41z"/>
</g>
<path class="st13" d="M114.43,187.26l-0.31,2.99l2.43-1.76l2.43,1.76l-0.31-2.99l2.74-1.23l-2.74-1.23l0.31-2.99l-2.43,1.76
	l-2.43-1.76l0.31,2.99l-2.74,1.23L114.43,187.26z M132.78,193.28l4.21,2.43l-1.84,3.19l-4.21-2.43l0.76,2.86l-3.56,0.95l-1.73-6.43
	l-3.38-1.95l1.93,8.69l-6.57-6.03v3.92l4.7,4.7l-2.6,2.61l-2.1-2.09v4.86h-3.69v-4.86l-2.1,2.09l-2.61-2.61l4.7-4.7v-3.91
	l-6.56,6.01l1.94-8.7l-3.4,1.96l-1.73,6.43l-3.56-0.95l0.76-2.86l-4.21,2.43l-1.84-3.19l4.21-2.43l-2.86-0.77l0.95-3.56l6.43,1.72
	l3.38-1.95l-8.49-2.67l8.5-2.68l-3.4-1.96l-6.43,1.72l-0.95-3.56l2.86-0.77l-4.21-2.43l1.84-3.19l4.21,2.43l-0.76-2.86l3.56-0.96
	l1.73,6.43l3.38,1.95l-1.93-8.69l6.57,6.03v-3.92l-4.7-4.7l2.61-2.61l2.1,2.1v-4.86h3.69v4.86l2.1-2.1l2.6,2.61l-4.7,4.7v3.91
	l6.56-6.02l-1.93,8.71l3.39-1.96l1.73-6.43l3.56,0.96l-0.76,2.86l4.21-2.43l1.84,3.19l-4.21,2.43l2.87,0.77l-0.96,3.56l-6.42-1.72
	l-3.38,1.95l8.48,2.68l-8.51,2.68l3.4,1.96l6.42-1.72l0.96,3.56L132.78,193.28z"/>
</svg>
